<svg width="146" height="24" viewBox="0 0 146 24" fill="none" xmlns="http://www.w3.org/2000/svg">
<path d="M28.2642 19V4.45455H31.3395V16.4645H37.5753V19H28.2642ZM44.5266 19.2131C43.4045 19.2131 42.4386 18.9858 41.6289 18.5312C40.824 18.072 40.2037 17.4233 39.7681 16.5852C39.3325 15.7424 39.1147 14.7457 39.1147 13.5952C39.1147 12.473 39.3325 11.4882 39.7681 10.6406C40.2037 9.79309 40.8169 9.13258 41.6076 8.65909C42.4031 8.18561 43.3358 7.94886 44.4059 7.94886C45.1256 7.94886 45.7956 8.06487 46.4158 8.29688C47.0408 8.52415 47.5853 8.86742 48.0494 9.3267C48.5181 9.78598 48.8827 10.3636 49.1431 11.0597C49.4035 11.7509 49.5337 12.5606 49.5337 13.4886V14.3196H40.3221V12.4446H46.6857C46.6857 12.009 46.591 11.6231 46.4016 11.2869C46.2122 10.9508 45.9495 10.688 45.6133 10.4986C45.2818 10.3045 44.896 10.2074 44.4556 10.2074C43.9963 10.2074 43.5891 10.3139 43.234 10.527C42.8836 10.7353 42.609 11.017 42.4102 11.3722C42.2113 11.7225 42.1095 12.1132 42.1048 12.544V14.3267C42.1048 14.8665 42.2042 15.3329 42.4031 15.7259C42.6067 16.1188 42.8931 16.4219 43.2624 16.6349C43.6317 16.848 44.0697 16.9545 44.5763 16.9545C44.9125 16.9545 45.2203 16.9072 45.4996 16.8125C45.779 16.7178 46.0181 16.5758 46.217 16.3864C46.4158 16.197 46.5674 15.965 46.6715 15.6903L49.4698 15.875C49.3278 16.5473 49.0366 17.1345 48.5962 17.6364C48.1606 18.1335 47.5972 18.5218 46.9059 18.8011C46.2193 19.0758 45.4263 19.2131 44.5266 19.2131ZM54.619 19.206C53.9229 19.206 53.3027 19.0852 52.7582 18.8438C52.2137 18.5975 51.7828 18.2353 51.4656 17.7571C51.1531 17.2741 50.9968 16.6728 50.9968 15.9531C50.9968 15.3471 51.1081 14.8381 51.3306 14.4261C51.5531 14.0142 51.8562 13.6828 52.2397 13.4318C52.6232 13.1809 53.0588 12.9915 53.5465 12.8636C54.0389 12.7358 54.555 12.6458 55.0948 12.5938C55.7293 12.5275 56.2406 12.4659 56.6289 12.4091C57.0172 12.3475 57.2989 12.2576 57.4741 12.1392C57.6493 12.0208 57.7369 11.8456 57.7369 11.6136V11.571C57.7369 11.1212 57.5948 10.7732 57.3107 10.527C57.0314 10.2808 56.6336 10.1577 56.1175 10.1577C55.573 10.1577 55.1398 10.2784 54.8178 10.5199C54.4959 10.7566 54.2828 11.0549 54.1786 11.4148L51.3803 11.1875C51.5224 10.5246 51.8017 9.9517 52.2184 9.46875C52.6351 8.98106 53.1725 8.60701 53.8306 8.34659C54.4935 8.08144 55.2605 7.94886 56.1317 7.94886C56.7378 7.94886 57.3178 8.01989 57.8718 8.16193C58.4305 8.30398 58.9253 8.52415 59.3562 8.82244C59.7918 9.12074 60.1351 9.50426 60.386 9.97301C60.637 10.437 60.7624 10.9934 60.7624 11.642V19H57.8931V17.4872H57.8079C57.6327 17.8281 57.3983 18.1288 57.1048 18.3892C56.8112 18.6449 56.4585 18.8461 56.0465 18.9929C55.6346 19.1349 55.1587 19.206 54.619 19.206ZM55.4854 17.1179C55.9305 17.1179 56.3235 17.0303 56.6644 16.8551C57.0053 16.6752 57.2728 16.4337 57.467 16.1307C57.6611 15.8277 57.7582 15.4844 57.7582 15.1009V13.9432C57.6635 14.0047 57.5333 14.0616 57.3675 14.1136C57.2066 14.161 57.0243 14.206 56.8207 14.2486C56.6171 14.2865 56.4135 14.322 56.2099 14.3551C56.0063 14.3835 55.8216 14.4096 55.6559 14.4332C55.3008 14.4853 54.9906 14.5682 54.7255 14.6818C54.4603 14.7955 54.2544 14.9493 54.1076 15.1435C53.9608 15.3329 53.8874 15.5696 53.8874 15.8537C53.8874 16.2656 54.0366 16.5805 54.3349 16.7983C54.6379 17.0114 55.0214 17.1179 55.4854 17.1179ZM63.1097 19V8.09091H66.043V9.99432H66.1566C66.3555 9.31723 66.6893 8.80587 67.158 8.46023C67.6268 8.10985 68.1665 7.93466 68.7773 7.93466C68.9289 7.93466 69.0922 7.94413 69.2674 7.96307C69.4426 7.98201 69.5965 8.00805 69.729 8.04119V10.7259C69.587 10.6832 69.3905 10.6454 69.1396 10.6122C68.8886 10.5791 68.659 10.5625 68.4506 10.5625C68.0056 10.5625 67.6078 10.6596 67.2575 10.8537C66.9118 11.0431 66.6372 11.3082 66.4336 11.6491C66.2347 11.9901 66.1353 12.383 66.1353 12.8281V19H63.1097ZM74.3189 12.6932V19H71.2933V8.09091H74.1768V10.0156H74.3047C74.5462 9.38116 74.951 8.87926 75.5192 8.50994C76.0874 8.13589 76.7763 7.94886 77.5859 7.94886C78.3435 7.94886 79.004 8.11458 79.5675 8.44602C80.1309 8.77746 80.5689 9.25095 80.8814 9.86648C81.1939 10.4773 81.3501 11.2064 81.3501 12.054V19H78.3246V12.5938C78.3293 11.9261 78.1589 11.4053 77.8132 11.0312C77.4676 10.6525 76.9917 10.4631 76.3857 10.4631C75.9785 10.4631 75.6186 10.5507 75.3061 10.7259C74.9983 10.901 74.7569 11.1567 74.5817 11.4929C74.4112 11.8243 74.3236 12.2244 74.3189 12.6932ZM83.7915 19V4.45455H89.6154C90.6855 4.45455 91.578 4.61316 92.293 4.9304C93.0079 5.24763 93.5453 5.68797 93.9052 6.25142C94.265 6.81013 94.445 7.45407 94.445 8.18324C94.445 8.75142 94.3313 9.25095 94.104 9.68182C93.8768 10.108 93.5643 10.4583 93.1665 10.733C92.7736 11.0028 92.3237 11.1946 91.8171 11.3082V11.4503C92.3711 11.474 92.8896 11.6302 93.3725 11.919C93.8602 12.2079 94.2556 12.6127 94.5586 13.1335C94.8616 13.6496 95.0131 14.2652 95.0131 14.9801C95.0131 15.7519 94.8214 16.4408 94.4379 17.0469C94.0591 17.6482 93.498 18.1241 92.7546 18.4744C92.0112 18.8248 91.0951 19 90.006 19H83.7915ZM86.8668 16.4858H89.3739C90.2309 16.4858 90.8559 16.3224 91.2489 15.9957C91.6419 15.6643 91.8384 15.224 91.8384 14.6747C91.8384 14.2723 91.7414 13.9171 91.5472 13.6094C91.3531 13.3016 91.0761 13.0601 90.7163 12.8849C90.3612 12.7098 89.9374 12.6222 89.445 12.6222H86.8668V16.4858ZM86.8668 10.5412H89.1467C89.5681 10.5412 89.9421 10.4678 90.2688 10.321C90.6003 10.1695 90.8607 9.95644 91.0501 9.68182C91.2442 9.4072 91.3413 9.07812 91.3413 8.6946C91.3413 8.16903 91.1542 7.74527 90.7802 7.4233C90.4109 7.10133 89.8853 6.94034 89.2035 6.94034H86.8668V10.5412ZM103.953 14.3551V8.09091H106.979V19H104.074V17.0185H103.96C103.714 17.6577 103.304 18.1714 102.732 18.5597C102.163 18.9479 101.47 19.142 100.651 19.142C99.9214 19.142 99.2798 18.9763 98.7259 18.6449C98.1719 18.3134 97.7386 17.8423 97.4261 17.2315C97.1184 16.6207 96.9621 15.8892 96.9574 15.0369V8.09091H99.983V14.4972C99.9877 15.1411 100.161 15.6501 100.501 16.0241C100.842 16.3982 101.299 16.5852 101.872 16.5852C102.237 16.5852 102.578 16.5024 102.895 16.3366C103.212 16.1662 103.468 15.9152 103.662 15.5838C103.861 15.2524 103.958 14.8428 103.953 14.3551ZM113.419 19.1776C112.59 19.1776 111.84 18.9645 111.167 18.5384C110.5 18.1075 109.969 17.4754 109.576 16.642C109.188 15.804 108.994 14.7765 108.994 13.5597C108.994 12.3097 109.195 11.2704 109.598 10.4418C110 9.60843 110.535 8.9858 111.203 8.57386C111.875 8.1572 112.611 7.94886 113.412 7.94886C114.022 7.94886 114.531 8.05303 114.939 8.26136C115.35 8.46496 115.682 8.72064 115.933 9.02841C116.189 9.33144 116.383 9.62973 116.515 9.9233H116.608V4.45455H119.626V19H116.643V17.2528H116.515C116.373 17.5559 116.172 17.8565 115.912 18.1548C115.656 18.4484 115.322 18.6922 114.91 18.8864C114.503 19.0805 114.006 19.1776 113.419 19.1776ZM114.377 16.7699C114.865 16.7699 115.277 16.6373 115.613 16.3722C115.954 16.1023 116.215 15.7259 116.395 15.2429C116.579 14.7599 116.672 14.1941 116.672 13.5455C116.672 12.8968 116.582 12.3333 116.402 11.8551C116.222 11.3769 115.961 11.0076 115.62 10.7472C115.279 10.4867 114.865 10.3565 114.377 10.3565C113.88 10.3565 113.461 10.4915 113.12 10.7614C112.779 11.0312 112.521 11.4053 112.346 11.8835C112.171 12.3617 112.083 12.9157 112.083 13.5455C112.083 14.1799 112.171 14.741 112.346 15.2287C112.526 15.7116 112.784 16.0904 113.12 16.3651C113.461 16.6349 113.88 16.7699 114.377 16.7699ZM126.134 19.1776C125.305 19.1776 124.554 18.9645 123.882 18.5384C123.214 18.1075 122.684 17.4754 122.291 16.642C121.903 15.804 121.709 14.7765 121.709 13.5597C121.709 12.3097 121.91 11.2704 122.312 10.4418C122.715 9.60843 123.25 8.9858 123.918 8.57386C124.59 8.1572 125.326 7.94886 126.126 7.94886C126.737 7.94886 127.246 8.05303 127.653 8.26136C128.065 8.46496 128.397 8.72064 128.648 9.02841C128.903 9.33144 129.098 9.62973 129.23 9.9233H129.322V4.45455H132.341V19H129.358V17.2528H129.23C129.088 17.5559 128.887 17.8565 128.626 18.1548C128.371 18.4484 128.037 18.6922 127.625 18.8864C127.218 19.0805 126.721 19.1776 126.134 19.1776ZM127.092 16.7699C127.58 16.7699 127.992 16.6373 128.328 16.3722C128.669 16.1023 128.929 15.7259 129.109 15.2429C129.294 14.7599 129.386 14.1941 129.386 13.5455C129.386 12.8968 129.296 12.3333 129.116 11.8551C128.937 11.3769 128.676 11.0076 128.335 10.7472C127.994 10.4867 127.58 10.3565 127.092 10.3565C126.595 10.3565 126.176 10.4915 125.835 10.7614C125.494 11.0312 125.236 11.4053 125.061 11.8835C124.886 12.3617 124.798 12.9157 124.798 13.5455C124.798 14.1799 124.886 14.741 125.061 15.2287C125.241 15.7116 125.499 16.0904 125.835 16.3651C126.176 16.6349 126.595 16.7699 127.092 16.7699ZM136.696 23.0909C136.313 23.0909 135.953 23.0601 135.617 22.9986C135.285 22.9418 135.011 22.8684 134.793 22.7784L135.475 20.5199C135.83 20.6288 136.15 20.688 136.434 20.6974C136.722 20.7069 136.971 20.6406 137.179 20.4986C137.392 20.3565 137.565 20.1151 137.698 19.7741L137.875 19.3125L133.962 8.09091H137.144L139.402 16.1023H139.516L141.796 8.09091H144.999L140.759 20.179C140.555 20.7661 140.278 21.2775 139.928 21.7131C139.582 22.1534 139.144 22.492 138.614 22.7287C138.084 22.9702 137.444 23.0909 136.696 23.0909Z" fill="black"/>
<path d="M17 21V19C17 17.9391 16.5786 16.9217 15.8284 16.1716C15.0783 15.4214 14.0609 15 13 15H5C3.93913 15 2.92172 15.4214 2.17157 16.1716C1.42143 16.9217 1 17.9391 1 19V21M23 21V19C22.9993 18.1137 22.7044 17.2528 22.1614 16.5523C21.6184 15.8519 20.8581 15.3516 20 15.13M16 3.13C16.8604 3.3503 17.623 3.8507 18.1676 4.55231C18.7122 5.25392 19.0078 6.11683 19.0078 7.005C19.0078 7.89317 18.7122 8.75608 18.1676 9.45769C17.623 10.1593 16.8604 10.6597 16 10.88M13 7C13 9.20914 11.2091 11 9 11C6.79086 11 5 9.20914 5 7C5 4.79086 6.79086 3 9 3C11.2091 3 13 4.79086 13 7Z" stroke="#181D27" stroke-width="2" stroke-linecap="round" stroke-linejoin="round"/>
</svg>
