<svg width="179" height="24" viewBox="0 0 179 24" fill="none" xmlns="http://www.w3.org/2000/svg">
<path d="M17 21V19C17 17.9391 16.5786 16.9217 15.8284 16.1716C15.0783 15.4214 14.0609 15 13 15H5C3.93913 15 2.92172 15.4214 2.17157 16.1716C1.42143 16.9217 1 17.9391 1 19V21M23 21V19C22.9993 18.1137 22.7044 17.2528 22.1614 16.5523C21.6184 15.8519 20.8581 15.3516 20 15.13M16 3.13C16.8604 3.3503 17.623 3.8507 18.1676 4.55231C18.7122 5.25392 19.0078 6.11683 19.0078 7.005C19.0078 7.89317 18.7122 8.75608 18.1676 9.45769C17.623 10.1593 16.8604 10.6597 16 10.88M13 7C13 9.20914 11.2091 11 9 11C6.79086 11 5 9.20914 5 7C5 4.79086 6.79086 3 9 3C11.2091 3 13 4.79086 13 7Z" stroke="#181D27" stroke-width="2" stroke-linecap="round" stroke-linejoin="round"/>
<path d="M31.2642 19V4.45455H34.3395V16.4645H40.5753V19H31.2642ZM47.5266 19.2131C46.4045 19.2131 45.4386 18.9858 44.6289 18.5312C43.824 18.072 43.2037 17.4233 42.7681 16.5852C42.3325 15.7424 42.1147 14.7457 42.1147 13.5952C42.1147 12.473 42.3325 11.4882 42.7681 10.6406C43.2037 9.79309 43.8169 9.13258 44.6076 8.65909C45.4031 8.18561 46.3358 7.94886 47.4059 7.94886C48.1256 7.94886 48.7956 8.06487 49.4158 8.29688C50.0408 8.52415 50.5853 8.86742 51.0494 9.3267C51.5181 9.78598 51.8827 10.3636 52.1431 11.0597C52.4035 11.7509 52.5337 12.5606 52.5337 13.4886V14.3196H43.3221V12.4446H49.6857C49.6857 12.009 49.591 11.6231 49.4016 11.2869C49.2122 10.9508 48.9495 10.688 48.6133 10.4986C48.2818 10.3045 47.896 10.2074 47.4556 10.2074C46.9963 10.2074 46.5891 10.3139 46.234 10.527C45.8836 10.7353 45.609 11.017 45.4102 11.3722C45.2113 11.7225 45.1095 12.1132 45.1048 12.544V14.3267C45.1048 14.8665 45.2042 15.3329 45.4031 15.7259C45.6067 16.1188 45.8931 16.4219 46.2624 16.6349C46.6317 16.848 47.0697 16.9545 47.5763 16.9545C47.9125 16.9545 48.2203 16.9072 48.4996 16.8125C48.779 16.7178 49.0181 16.5758 49.217 16.3864C49.4158 16.197 49.5674 15.965 49.6715 15.6903L52.4698 15.875C52.3278 16.5473 52.0366 17.1345 51.5962 17.6364C51.1606 18.1335 50.5972 18.5218 49.9059 18.8011C49.2193 19.0758 48.4263 19.2131 47.5266 19.2131ZM57.619 19.206C56.9229 19.206 56.3027 19.0852 55.7582 18.8438C55.2137 18.5975 54.7828 18.2353 54.4656 17.7571C54.1531 17.2741 53.9968 16.6728 53.9968 15.9531C53.9968 15.3471 54.1081 14.8381 54.3306 14.4261C54.5531 14.0142 54.8562 13.6828 55.2397 13.4318C55.6232 13.1809 56.0588 12.9915 56.5465 12.8636C57.0389 12.7358 57.555 12.6458 58.0948 12.5938C58.7293 12.5275 59.2406 12.4659 59.6289 12.4091C60.0172 12.3475 60.2989 12.2576 60.4741 12.1392C60.6493 12.0208 60.7369 11.8456 60.7369 11.6136V11.571C60.7369 11.1212 60.5948 10.7732 60.3107 10.527C60.0314 10.2808 59.6336 10.1577 59.1175 10.1577C58.573 10.1577 58.1398 10.2784 57.8178 10.5199C57.4959 10.7566 57.2828 11.0549 57.1786 11.4148L54.3803 11.1875C54.5224 10.5246 54.8017 9.9517 55.2184 9.46875C55.6351 8.98106 56.1725 8.60701 56.8306 8.34659C57.4935 8.08144 58.2605 7.94886 59.1317 7.94886C59.7378 7.94886 60.3178 8.01989 60.8718 8.16193C61.4305 8.30398 61.9253 8.52415 62.3562 8.82244C62.7918 9.12074 63.1351 9.50426 63.386 9.97301C63.637 10.437 63.7624 10.9934 63.7624 11.642V19H60.8931V17.4872H60.8079C60.6327 17.8281 60.3983 18.1288 60.1048 18.3892C59.8112 18.6449 59.4585 18.8461 59.0465 18.9929C58.6346 19.1349 58.1587 19.206 57.619 19.206ZM58.4854 17.1179C58.9305 17.1179 59.3235 17.0303 59.6644 16.8551C60.0053 16.6752 60.2728 16.4337 60.467 16.1307C60.6611 15.8277 60.7582 15.4844 60.7582 15.1009V13.9432C60.6635 14.0047 60.5333 14.0616 60.3675 14.1136C60.2066 14.161 60.0243 14.206 59.8207 14.2486C59.6171 14.2865 59.4135 14.322 59.2099 14.3551C59.0063 14.3835 58.8216 14.4096 58.6559 14.4332C58.3008 14.4853 57.9906 14.5682 57.7255 14.6818C57.4603 14.7955 57.2544 14.9493 57.1076 15.1435C56.9608 15.3329 56.8874 15.5696 56.8874 15.8537C56.8874 16.2656 57.0366 16.5805 57.3349 16.7983C57.6379 17.0114 58.0214 17.1179 58.4854 17.1179ZM66.1097 19V8.09091H69.043V9.99432H69.1566C69.3555 9.31723 69.6893 8.80587 70.158 8.46023C70.6268 8.10985 71.1665 7.93466 71.7773 7.93466C71.9289 7.93466 72.0922 7.94413 72.2674 7.96307C72.4426 7.98201 72.5965 8.00805 72.729 8.04119V10.7259C72.587 10.6832 72.3905 10.6454 72.1396 10.6122C71.8886 10.5791 71.659 10.5625 71.4506 10.5625C71.0056 10.5625 70.6078 10.6596 70.2575 10.8537C69.9118 11.0431 69.6372 11.3082 69.4336 11.6491C69.2347 11.9901 69.1353 12.383 69.1353 12.8281V19H66.1097ZM77.3189 12.6932V19H74.2933V8.09091H77.1768V10.0156H77.3047C77.5462 9.38116 77.951 8.87926 78.5192 8.50994C79.0874 8.13589 79.7763 7.94886 80.5859 7.94886C81.3435 7.94886 82.004 8.11458 82.5675 8.44602C83.1309 8.77746 83.5689 9.25095 83.8814 9.86648C84.1939 10.4773 84.3501 11.2064 84.3501 12.054V19H81.3246V12.5938C81.3293 11.9261 81.1589 11.4053 80.8132 11.0312C80.4676 10.6525 79.9917 10.4631 79.3857 10.4631C78.9785 10.4631 78.6186 10.5507 78.3061 10.7259C77.9983 10.901 77.7569 11.1567 77.5817 11.4929C77.4112 11.8243 77.3236 12.2244 77.3189 12.6932ZM86.7347 19V8.09091H89.7603V19H86.7347ZM88.2546 6.68466C87.8048 6.68466 87.4189 6.53551 87.0969 6.23722C86.7797 5.93419 86.6211 5.57197 86.6211 5.15057C86.6211 4.7339 86.7797 4.37642 87.0969 4.07812C87.4189 3.77509 87.8048 3.62358 88.2546 3.62358C88.7044 3.62358 89.0879 3.77509 89.4052 4.07812C89.7272 4.37642 89.8881 4.7339 89.8881 5.15057C89.8881 5.57197 89.7272 5.93419 89.4052 6.23722C89.0879 6.53551 88.7044 6.68466 88.2546 6.68466ZM95.2095 12.6932V19H92.1839V8.09091H95.0675V10.0156H95.1953C95.4368 9.38116 95.8416 8.87926 96.4098 8.50994C96.978 8.13589 97.6669 7.94886 98.4766 7.94886C99.2341 7.94886 99.8946 8.11458 100.458 8.44602C101.022 8.77746 101.46 9.25095 101.772 9.86648C102.085 10.4773 102.241 11.2064 102.241 12.054V19H99.2152V12.5938C99.2199 11.9261 99.0495 11.4053 98.7038 11.0312C98.3582 10.6525 97.8823 10.4631 97.2763 10.4631C96.8691 10.4631 96.5092 10.5507 96.1967 10.7259C95.889 10.901 95.6475 11.1567 95.4723 11.4929C95.3018 11.8243 95.2143 12.2244 95.2095 12.6932ZM109.54 23.3182C108.56 23.3182 107.72 23.1832 107.019 22.9134C106.323 22.6482 105.769 22.286 105.357 21.8267C104.945 21.3674 104.677 20.8513 104.554 20.2784L107.353 19.902C107.438 20.1198 107.573 20.3234 107.757 20.5128C107.942 20.7022 108.186 20.8537 108.489 20.9673C108.797 21.0857 109.171 21.1449 109.611 21.1449C110.269 21.1449 110.811 20.9839 111.238 20.6619C111.668 20.3447 111.884 19.812 111.884 19.0639V17.0682H111.756C111.623 17.3712 111.425 17.6577 111.159 17.9276C110.894 18.1974 110.553 18.4176 110.137 18.5881C109.72 18.7585 109.223 18.8438 108.645 18.8438C107.826 18.8438 107.08 18.6544 106.408 18.2756C105.74 17.892 105.208 17.3073 104.81 16.5213C104.417 15.7306 104.221 14.7315 104.221 13.5241C104.221 12.2884 104.422 11.2562 104.824 10.4276C105.227 9.59896 105.762 8.97869 106.429 8.56676C107.102 8.15483 107.838 7.94886 108.638 7.94886C109.249 7.94886 109.76 8.05303 110.172 8.26136C110.584 8.46496 110.916 8.72064 111.167 9.02841C111.422 9.33144 111.619 9.62973 111.756 9.9233H111.87V8.09091H114.874V19.1065C114.874 20.0346 114.647 20.8111 114.192 21.4361C113.738 22.0611 113.108 22.5298 112.303 22.8423C111.503 23.1596 110.582 23.3182 109.54 23.3182ZM109.604 16.571C110.092 16.571 110.504 16.4503 110.84 16.2088C111.181 15.9626 111.441 15.6122 111.621 15.1577C111.806 14.6984 111.898 14.1491 111.898 13.5099C111.898 12.8707 111.808 12.3168 111.628 11.848C111.448 11.3745 111.188 11.0076 110.847 10.7472C110.506 10.4867 110.092 10.3565 109.604 10.3565C109.107 10.3565 108.688 10.4915 108.347 10.7614C108.006 11.0265 107.748 11.3958 107.573 11.8693C107.398 12.3428 107.31 12.8897 107.31 13.5099C107.31 14.1397 107.398 14.6842 107.573 15.1435C107.753 15.598 108.011 15.9508 108.347 16.2017C108.688 16.4479 109.107 16.571 109.604 16.571ZM117.338 19V4.45455H123.162C124.232 4.45455 125.125 4.61316 125.84 4.9304C126.555 5.24763 127.092 5.68797 127.452 6.25142C127.812 6.81013 127.992 7.45407 127.992 8.18324C127.992 8.75142 127.878 9.25095 127.651 9.68182C127.424 10.108 127.111 10.4583 126.713 10.733C126.32 11.0028 125.871 11.1946 125.364 11.3082V11.4503C125.918 11.474 126.436 11.6302 126.919 11.919C127.407 12.2079 127.802 12.6127 128.105 13.1335C128.408 13.6496 128.56 14.2652 128.56 14.9801C128.56 15.7519 128.368 16.4408 127.985 17.0469C127.606 17.6482 127.045 18.1241 126.301 18.4744C125.558 18.8248 124.642 19 123.553 19H117.338ZM120.414 16.4858H122.921C123.778 16.4858 124.403 16.3224 124.796 15.9957C125.189 15.6643 125.385 15.224 125.385 14.6747C125.385 14.2723 125.288 13.9171 125.094 13.6094C124.9 13.3016 124.623 13.0601 124.263 12.8849C123.908 12.7098 123.484 12.6222 122.992 12.6222H120.414V16.4858ZM120.414 10.5412H122.694C123.115 10.5412 123.489 10.4678 123.816 10.321C124.147 10.1695 124.408 9.95644 124.597 9.68182C124.791 9.4072 124.888 9.07812 124.888 8.6946C124.888 8.16903 124.701 7.74527 124.327 7.4233C123.958 7.10133 123.432 6.94034 122.75 6.94034H120.414V10.5412ZM137.5 14.3551V8.09091H140.526V19H137.621V17.0185H137.507C137.261 17.6577 136.851 18.1714 136.278 18.5597C135.71 18.9479 135.017 19.142 134.197 19.142C133.468 19.142 132.827 18.9763 132.273 18.6449C131.719 18.3134 131.286 17.8423 130.973 17.2315C130.665 16.6207 130.509 15.8892 130.504 15.0369V8.09091H133.53V14.4972C133.535 15.1411 133.707 15.6501 134.048 16.0241C134.389 16.3982 134.846 16.5852 135.419 16.5852C135.784 16.5852 136.125 16.5024 136.442 16.3366C136.759 16.1662 137.015 15.9152 137.209 15.5838C137.408 15.2524 137.505 14.8428 137.5 14.3551ZM146.966 19.1776C146.137 19.1776 145.386 18.9645 144.714 18.5384C144.047 18.1075 143.516 17.4754 143.123 16.642C142.735 15.804 142.541 14.7765 142.541 13.5597C142.541 12.3097 142.742 11.2704 143.145 10.4418C143.547 9.60843 144.082 8.9858 144.75 8.57386C145.422 8.1572 146.158 7.94886 146.958 7.94886C147.569 7.94886 148.078 8.05303 148.485 8.26136C148.897 8.46496 149.229 8.72064 149.48 9.02841C149.735 9.33144 149.93 9.62973 150.062 9.9233H150.154V4.45455H153.173V19H150.19V17.2528H150.062C149.92 17.5559 149.719 17.8565 149.458 18.1548C149.203 18.4484 148.869 18.6922 148.457 18.8864C148.05 19.0805 147.553 19.1776 146.966 19.1776ZM147.924 16.7699C148.412 16.7699 148.824 16.6373 149.16 16.3722C149.501 16.1023 149.761 15.7259 149.941 15.2429C150.126 14.7599 150.218 14.1941 150.218 13.5455C150.218 12.8968 150.128 12.3333 149.949 11.8551C149.769 11.3769 149.508 11.0076 149.167 10.7472C148.826 10.4867 148.412 10.3565 147.924 10.3565C147.427 10.3565 147.008 10.4915 146.667 10.7614C146.326 11.0312 146.068 11.4053 145.893 11.8835C145.718 12.3617 145.63 12.9157 145.63 13.5455C145.63 14.1799 145.718 14.741 145.893 15.2287C146.073 15.7116 146.331 16.0904 146.667 16.3651C147.008 16.6349 147.427 16.7699 147.924 16.7699ZM159.68 19.1776C158.852 19.1776 158.101 18.9645 157.429 18.5384C156.761 18.1075 156.231 17.4754 155.838 16.642C155.45 15.804 155.256 14.7765 155.256 13.5597C155.256 12.3097 155.457 11.2704 155.859 10.4418C156.262 9.60843 156.797 8.9858 157.464 8.57386C158.137 8.1572 158.873 7.94886 159.673 7.94886C160.284 7.94886 160.793 8.05303 161.2 8.26136C161.612 8.46496 161.944 8.72064 162.195 9.02841C162.45 9.33144 162.644 9.62973 162.777 9.9233H162.869V4.45455H165.888V19H162.905V17.2528H162.777C162.635 17.5559 162.434 17.8565 162.173 18.1548C161.918 18.4484 161.584 18.6922 161.172 18.8864C160.765 19.0805 160.268 19.1776 159.68 19.1776ZM160.639 16.7699C161.127 16.7699 161.539 16.6373 161.875 16.3722C162.216 16.1023 162.476 15.7259 162.656 15.2429C162.841 14.7599 162.933 14.1941 162.933 13.5455C162.933 12.8968 162.843 12.3333 162.663 11.8551C162.483 11.3769 162.223 11.0076 161.882 10.7472C161.541 10.4867 161.127 10.3565 160.639 10.3565C160.142 10.3565 159.723 10.4915 159.382 10.7614C159.041 11.0312 158.783 11.4053 158.608 11.8835C158.433 12.3617 158.345 12.9157 158.345 13.5455C158.345 14.1799 158.433 14.741 158.608 15.2287C158.788 15.7116 159.046 16.0904 159.382 16.3651C159.723 16.6349 160.142 16.7699 160.639 16.7699ZM170.243 23.0909C169.86 23.0909 169.5 23.0601 169.164 22.9986C168.832 22.9418 168.558 22.8684 168.34 22.7784L169.022 20.5199C169.377 20.6288 169.696 20.688 169.98 20.6974C170.269 20.7069 170.518 20.6406 170.726 20.4986C170.939 20.3565 171.112 20.1151 171.245 19.7741L171.422 19.3125L167.509 8.09091H170.691L172.949 16.1023H173.063L175.343 8.09091H178.546L174.306 20.179C174.102 20.7661 173.825 21.2775 173.475 21.7131C173.129 22.1534 172.691 22.492 172.161 22.7287C171.631 22.9702 170.991 23.0909 170.243 23.0909Z" fill="black"/>
</svg>
